<svg width="250.001" height="312.501" viewBox="0 0 250.001 312.501" xmlns="http://www.w3.org/2000/svg"><g id="svgGroup" stroke-linecap="round" fill-rule="evenodd" font-size="9pt" stroke="#000000" stroke-width="0.25mm" fill="none" style="stroke:#000000;stroke-width:0.25mm;fill:none"><path d="M 109.376 31.251 C 118.126 31.251 125.001 38.126 125.001 46.876 C 125.001 38.126 131.876 31.251 140.626 31.251 C 149.376 31.251 156.251 38.126 156.251 46.876 C 156.251 38.126 163.126 31.251 171.876 31.251 C 180.626 31.251 187.501 38.126 187.501 46.876 C 187.501 55.626 180.626 62.501 171.876 62.501 C 163.126 62.501 156.251 55.626 156.251 46.876 C 156.251 55.626 149.376 62.501 140.626 62.501 C 131.876 62.501 125.001 55.626 125.001 46.876 C 125.001 55.626 118.126 62.501 109.376 62.501 C 100.626 62.501 93.751 55.626 93.751 46.876 C 93.751 55.626 86.876 62.501 78.126 62.501 C 69.376 62.501 62.501 55.626 62.501 46.876 C 62.501 55.626 55.626 62.501 46.876 62.501 C 38.126 62.501 31.251 55.626 31.251 46.876 C 31.251 38.126 38.126 31.251 46.876 31.251 C 55.626 31.251 62.501 24.376 62.501 15.626 C 62.501 6.876 69.376 0.001 78.126 0.001 C 86.876 0.001 93.751 6.876 93.751 15.626 C 93.751 24.376 86.876 31.251 78.126 31.251 C 69.376 31.251 62.501 24.376 62.501 15.626 C 62.501 24.376 55.626 31.251 46.876 31.251 C 55.626 31.251 62.501 38.126 62.501 46.876 C 62.501 38.126 69.376 31.251 78.126 31.251 C 86.876 31.251 93.751 38.126 93.751 46.876 C 93.751 38.126 100.626 31.251 109.376 31.251 Z M 46.876 187.501 C 55.626 187.501 62.501 194.376 62.501 203.126 C 62.501 194.376 69.376 187.501 78.126 187.501 C 86.876 187.501 93.751 180.626 93.751 171.876 C 93.751 163.126 86.876 156.251 78.126 156.251 C 69.376 156.251 62.501 163.126 62.501 171.876 C 62.501 180.626 69.376 187.501 78.126 187.501 C 86.876 187.501 93.751 194.376 93.751 203.126 C 93.751 211.876 86.876 218.751 78.126 218.751 C 69.376 218.751 62.501 211.876 62.501 203.126 C 62.501 211.876 55.626 218.751 46.876 218.751 C 38.126 218.751 31.251 211.876 31.251 203.126 C 31.251 194.376 38.126 187.501 46.876 187.501 Z M 46.876 93.751 C 55.626 93.751 62.501 100.626 62.501 109.376 C 62.501 118.126 55.626 125.001 46.876 125.001 C 38.126 125.001 31.251 118.126 31.251 109.376 C 31.251 118.126 24.376 125.001 15.626 125.001 C 6.876 125.001 0.001 118.126 0.001 109.376 C 0.001 100.626 6.876 93.751 15.626 93.751 C 24.376 93.751 31.251 100.626 31.251 109.376 C 31.251 100.626 38.126 93.751 46.876 93.751 Z M 15.626 125.001 C 24.376 125.001 31.251 131.876 31.251 140.626 C 31.251 131.876 38.126 125.001 46.876 125.001 C 55.626 125.001 62.501 131.876 62.501 140.626 C 62.501 149.376 55.626 156.251 46.876 156.251 C 38.126 156.251 31.251 149.376 31.251 140.626 C 31.251 149.376 24.376 156.251 15.626 156.251 C 6.876 156.251 0.001 149.376 0.001 140.626 C 0.001 131.876 6.876 125.001 15.626 125.001 Z M 46.876 218.751 C 55.626 218.751 62.501 225.626 62.501 234.376 C 62.501 243.126 55.626 250.001 46.876 250.001 C 38.126 250.001 31.251 243.126 31.251 234.376 C 31.251 243.126 24.376 250.001 15.626 250.001 C 6.876 250.001 0.001 243.126 0.001 234.376 C 0.001 225.626 6.876 218.751 15.626 218.751 C 24.376 218.751 31.251 225.626 31.251 234.376 C 31.251 225.626 38.126 218.751 46.876 218.751 Z M 140.626 31.251 C 131.876 31.251 125.001 24.376 125.001 15.626 C 125.001 6.876 131.876 0.001 140.626 0.001 C 149.376 0.001 156.251 6.876 156.251 15.626 C 156.251 24.376 149.376 31.251 140.626 31.251 Z M 125.001 15.626 C 125.001 24.376 118.126 31.251 109.376 31.251 C 100.626 31.251 93.751 24.376 93.751 15.626 C 93.751 6.876 100.626 0.001 109.376 0.001 C 118.126 0.001 125.001 6.876 125.001 15.626 Z M 31.251 15.626 C 31.251 24.376 24.376 31.251 15.626 31.251 C 6.876 31.251 0.001 24.376 0.001 15.626 C 0.001 6.876 6.876 0.001 15.626 0.001 C 24.376 0.001 31.251 6.876 31.251 15.626 Z M 15.626 31.251 C 24.376 31.251 31.251 38.126 31.251 46.876 C 31.251 55.626 24.376 62.501 15.626 62.501 C 6.876 62.501 0.001 55.626 0.001 46.876 C 0.001 38.126 6.876 31.251 15.626 31.251 Z M 171.876 62.501 C 180.626 62.501 187.501 69.376 187.501 78.126 C 187.501 86.876 180.626 93.751 171.876 93.751 C 163.126 93.751 156.251 86.876 156.251 78.126 C 156.251 69.376 163.126 62.501 171.876 62.501 Z M 46.876 62.501 C 55.626 62.501 62.501 69.376 62.501 78.126 C 62.501 86.876 55.626 93.751 46.876 93.751 C 38.126 93.751 31.251 86.876 31.251 78.126 C 31.251 69.376 38.126 62.501 46.876 62.501 Z M 15.626 62.501 C 24.376 62.501 31.251 69.376 31.251 78.126 C 31.251 86.876 24.376 93.751 15.626 93.751 C 6.876 93.751 0.001 86.876 0.001 78.126 C 0.001 69.376 6.876 62.501 15.626 62.501 Z M 171.876 93.751 C 180.626 93.751 187.501 100.626 187.501 109.376 C 187.501 118.126 180.626 125.001 171.876 125.001 C 163.126 125.001 156.251 118.126 156.251 109.376 C 156.251 100.626 163.126 93.751 171.876 93.751 Z M 187.501 78.126 C 187.501 69.376 194.376 62.501 203.126 62.501 C 211.876 62.501 218.751 69.376 218.751 78.126 C 218.751 86.876 211.876 93.751 203.126 93.751 C 194.376 93.751 187.501 86.876 187.501 78.126 Z M 203.126 93.751 C 211.876 93.751 218.751 100.626 218.751 109.376 C 218.751 118.126 211.876 125.001 203.126 125.001 C 194.376 125.001 187.501 118.126 187.501 109.376 C 187.501 100.626 194.376 93.751 203.126 93.751 Z M 171.876 125.001 C 180.626 125.001 187.501 131.876 187.501 140.626 C 187.501 149.376 180.626 156.251 171.876 156.251 C 163.126 156.251 156.251 149.376 156.251 140.626 C 156.251 131.876 163.126 125.001 171.876 125.001 Z M 203.126 125.001 C 211.876 125.001 218.751 131.876 218.751 140.626 C 218.751 149.376 211.876 156.251 203.126 156.251 C 194.376 156.251 187.501 149.376 187.501 140.626 C 187.501 131.876 194.376 125.001 203.126 125.001 Z M 46.876 156.251 C 55.626 156.251 62.501 163.126 62.501 171.876 C 62.501 180.626 55.626 187.501 46.876 187.501 C 38.126 187.501 31.251 180.626 31.251 171.876 C 31.251 163.126 38.126 156.251 46.876 156.251 Z M 15.626 156.251 C 24.376 156.251 31.251 163.126 31.251 171.876 C 31.251 180.626 24.376 187.501 15.626 187.501 C 6.876 187.501 0.001 180.626 0.001 171.876 C 0.001 163.126 6.876 156.251 15.626 156.251 Z M 171.876 156.251 C 180.626 156.251 187.501 163.126 187.501 171.876 C 187.501 180.626 180.626 187.501 171.876 187.501 C 163.126 187.501 156.251 180.626 156.251 171.876 C 156.251 163.126 163.126 156.251 171.876 156.251 Z M 15.626 187.501 C 24.376 187.501 31.251 194.376 31.251 203.126 C 31.251 211.876 24.376 218.751 15.626 218.751 C 6.876 218.751 0.001 211.876 0.001 203.126 C 0.001 194.376 6.876 187.501 15.626 187.501 Z M 93.751 171.876 C 93.751 163.126 100.626 156.251 109.376 156.251 C 118.126 156.251 125.001 163.126 125.001 171.876 C 125.001 180.626 118.126 187.501 109.376 187.501 C 100.626 187.501 93.751 180.626 93.751 171.876 Z M 109.376 187.501 C 118.126 187.501 125.001 194.376 125.001 203.126 C 125.001 211.876 118.126 218.751 109.376 218.751 C 100.626 218.751 93.751 211.876 93.751 203.126 C 93.751 194.376 100.626 187.501 109.376 187.501 Z M 125.001 171.876 C 125.001 163.126 131.876 156.251 140.626 156.251 C 149.376 156.251 156.251 163.126 156.251 171.876 C 156.251 180.626 149.376 187.501 140.626 187.501 C 131.876 187.501 125.001 180.626 125.001 171.876 Z M 140.626 187.501 C 149.376 187.501 156.251 194.376 156.251 203.126 C 156.251 211.876 149.376 218.751 140.626 218.751 C 131.876 218.751 125.001 211.876 125.001 203.126 C 125.001 194.376 131.876 187.501 140.626 187.501 Z M 109.376 218.751 C 118.126 218.751 125.001 225.626 125.001 234.376 C 125.001 243.126 118.126 250.001 109.376 250.001 C 100.626 250.001 93.751 243.126 93.751 234.376 C 93.751 225.626 100.626 218.751 109.376 218.751 Z M 140.626 218.751 C 149.376 218.751 156.251 225.626 156.251 234.376 C 156.251 243.126 149.376 250.001 140.626 250.001 C 131.876 250.001 125.001 243.126 125.001 234.376 C 125.001 225.626 131.876 218.751 140.626 218.751 Z M 140.626 250.001 C 149.376 250.001 156.251 256.876 156.251 265.626 C 156.251 274.376 149.376 281.251 140.626 281.251 C 131.876 281.251 125.001 274.376 125.001 265.626 C 125.001 256.876 131.876 250.001 140.626 250.001 Z M 156.251 234.376 C 156.251 225.626 163.126 218.751 171.876 218.751 C 180.626 218.751 187.501 225.626 187.501 234.376 C 187.501 243.126 180.626 250.001 171.876 250.001 C 163.126 250.001 156.251 243.126 156.251 234.376 Z M 171.876 250.001 C 180.626 250.001 187.501 256.876 187.501 265.626 C 187.501 274.376 180.626 281.251 171.876 281.251 C 163.126 281.251 156.251 274.376 156.251 265.626 C 156.251 256.876 163.126 250.001 171.876 250.001 Z M 15.626 250.001 C 24.376 250.001 31.251 256.876 31.251 265.626 C 31.251 274.376 24.376 281.251 15.626 281.251 C 6.876 281.251 0.001 274.376 0.001 265.626 C 0.001 256.876 6.876 250.001 15.626 250.001 Z M 46.876 250.001 C 55.626 250.001 62.501 256.876 62.501 265.626 C 62.501 274.376 55.626 281.251 46.876 281.251 C 38.126 281.251 31.251 274.376 31.251 265.626 C 31.251 256.876 38.126 250.001 46.876 250.001 Z M 171.876 281.251 C 180.626 281.251 187.501 288.126 187.501 296.876 C 187.501 305.626 180.626 312.501 171.876 312.501 C 163.126 312.501 156.251 305.626 156.251 296.876 C 156.251 288.126 163.126 281.251 171.876 281.251 Z M 187.501 265.626 C 187.501 256.876 194.376 250.001 203.126 250.001 C 211.876 250.001 218.751 256.876 218.751 265.626 C 218.751 274.376 211.876 281.251 203.126 281.251 C 194.376 281.251 187.501 274.376 187.501 265.626 Z M 203.126 281.251 C 211.876 281.251 218.751 288.126 218.751 296.876 C 218.751 305.626 211.876 312.501 203.126 312.501 C 194.376 312.501 187.501 305.626 187.501 296.876 C 187.501 288.126 194.376 281.251 203.126 281.251 Z M 15.626 281.251 C 24.376 281.251 31.251 288.126 31.251 296.876 C 31.251 305.626 24.376 312.501 15.626 312.501 C 6.876 312.501 0.001 305.626 0.001 296.876 C 0.001 288.126 6.876 281.251 15.626 281.251 Z M 46.876 281.251 C 55.626 281.251 62.501 288.126 62.501 296.876 C 62.501 305.626 55.626 312.501 46.876 312.501 C 38.126 312.501 31.251 305.626 31.251 296.876 C 31.251 288.126 38.126 281.251 46.876 281.251 Z M 218.751 296.876 C 218.751 288.126 225.626 281.251 234.376 281.251 C 243.126 281.251 250.001 288.126 250.001 296.876 C 250.001 305.626 243.126 312.501 234.376 312.501 C 225.626 312.501 218.751 305.626 218.751 296.876 Z M 62.501 15.626 C 62.501 6.876 55.626 0.001 46.876 0.001 C 38.126 0.001 31.251 6.876 31.251 15.626 C 31.251 24.376 38.126 31.251 46.876 31.251" vector-effect="non-scaling-stroke"/></g></svg>